<svg width="13" height="13" viewBox="0 0 13 13" fill="none" xmlns="http://www.w3.org/2000/svg">
<path d="M3.9 10.4842C3.185 10.4842 2.6065 11.0283 2.6065 11.6934C2.6065 12.3585 3.185 12.9026 3.9 12.9026C4.615 12.9026 5.2 12.3585 5.2 11.6934C5.2 11.0283 4.615 10.4842 3.9 10.4842ZM0 0.810242V2.01948H1.3L3.64 6.60854L2.7625 8.08986C2.6585 8.25915 2.6 8.45868 2.6 8.6703C2.6 9.33538 3.185 9.87953 3.9 9.87953H11.7V8.6703H4.173C4.082 8.6703 4.0105 8.60379 4.0105 8.51914L4.03 8.44659L4.615 7.46106H9.4575C9.945 7.46106 10.374 7.21316 10.595 6.8383L12.922 2.91432C12.974 2.82967 13 2.72689 13 2.6241C13 2.29156 12.7075 2.01948 12.35 2.01948H2.7365L2.1255 0.810242H0ZM10.4 10.4842C9.685 10.4842 9.1065 11.0283 9.1065 11.6934C9.1065 12.3585 9.685 12.9026 10.4 12.9026C11.115 12.9026 11.7 12.3585 11.7 11.6934C11.7 11.0283 11.115 10.4842 10.4 10.4842Z" fill="#F3CBF6"/>
</svg>
