<svg width="48" height="48" viewBox="0 0 48 48" fill="none" xmlns="http://www.w3.org/2000/svg">
<path d="M24 0C10.745 0 0 10.745 0 24C0 37.255 10.745 48 24 48C37.255 48 48 37.255 48 24C48 10.745 37.255 0 24 0ZM22.6175 34.3025C21.11 35.035 19.4875 35.1125 18.86 35.1125H18.6725H18.5375C17.5575 35.1125 12.68 34.8875 12.68 30.445C12.68 26.08 17.9925 25.7375 19.62 25.7375H19.6625C18.7225 24.4825 18.9175 23.2175 18.9175 23.2175C18.801 23.2243 18.6842 23.2277 18.5675 23.2275C17.955 23.2275 16.7725 23.13 15.7575 22.475C14.5125 21.675 13.8825 20.3125 13.8825 18.4275C13.8825 13.1 19.7 12.885 19.7575 12.88H25.5675V13.0075C25.5675 13.6575 24.4 13.785 23.605 13.8925C23.335 13.9325 22.7925 13.985 22.64 14.0625C24.1125 14.85 24.35 16.085 24.35 17.925C24.35 20.02 23.53 21.1275 22.66 21.905C22.12 22.3875 21.6975 22.765 21.6975 23.2725C21.6975 23.77 22.2775 24.2775 22.9525 24.87C24.055 25.8425 25.5675 27.165 25.5675 29.3975C25.5675 31.705 24.575 33.355 22.6175 34.3025ZM35.25 24H31.5V27.75H29V24H25.25V21.5H29V17.75H31.5V21.5H35.25V24ZM19.5575 26.875C19.4265 26.8751 19.2956 26.8801 19.165 26.89C18.1031 26.9512 17.0918 27.3636 16.29 28.0625C15.555 28.7275 15.18 29.5675 15.2325 30.415C15.345 32.1925 17.2525 33.2325 19.57 33.0675C21.85 32.9025 23.37 31.5875 23.26 29.81C23.155 28.14 21.7025 26.875 19.5575 26.875ZM21.7425 17.2125C21.1375 15.0875 20.1625 14.4575 18.6475 14.4575C18.4836 14.4587 18.3205 14.4814 18.1625 14.525C17.505 14.7125 16.9825 15.26 16.6925 16.075C16.395 16.9 16.3775 17.76 16.6325 18.74C17.095 20.4925 18.34 21.7625 19.595 21.7625C19.7591 21.7641 19.9226 21.7414 20.08 21.695C21.4525 21.31 22.3125 19.215 21.7425 17.2125Z" fill="#811888"/>
</svg>
