<svg width="19" height="18" viewBox="0 0 19 18" fill="none" xmlns="http://www.w3.org/2000/svg">
<path d="M17.9501 5.1736C17.94 4.43762 17.7982 3.70896 17.5311 3.0202C17.2994 2.43924 16.9456 1.91163 16.4922 1.47107C16.0389 1.03051 15.4959 0.686689 14.898 0.461582C14.1984 0.206358 13.4592 0.0683542 12.712 0.0534464C11.75 0.0116611 11.445 0 9.00303 0C6.56102 0 6.24802 6.33299e-08 5.29302 0.0534464C4.54617 0.0684638 3.80736 0.206466 3.10801 0.461582C2.51007 0.686532 1.96703 1.03029 1.51364 1.47087C1.06025 1.91145 0.706491 2.43915 0.475001 3.0202C0.211832 3.69958 0.0701234 4.41769 0.0560002 5.14348C0.013 6.07927 0 6.37566 0 8.74867C0 11.1217 -7.45058e-09 11.4249 0.0560002 12.3539C0.0710002 13.0807 0.212001 13.7979 0.475001 14.4791C0.70688 15.06 1.0609 15.5874 1.51444 16.0278C1.96798 16.4682 2.51107 16.8119 3.10901 17.0367C3.80645 17.3022 4.54539 17.4501 5.29402 17.474C6.25702 17.5158 6.56202 17.5284 9.00403 17.5284C11.446 17.5284 11.759 17.5284 12.714 17.474C13.4612 17.4597 14.2004 17.322 14.9 17.0669C15.4977 16.8415 16.0406 16.4976 16.4939 16.0571C16.9472 15.6165 17.3011 15.089 17.5331 14.5082C17.7961 13.828 17.9371 13.1109 17.9521 12.383C17.9951 11.4482 18.0081 11.1518 18.0081 8.77783C18.0061 6.40481 18.0061 6.10357 17.9501 5.1736ZM8.99703 13.2362C6.44302 13.2362 4.37401 11.2257 4.37401 8.74382C4.37401 6.26196 6.44302 4.25141 8.99703 4.25141C10.2231 4.25141 11.399 4.72472 12.266 5.56721C13.133 6.4097 13.62 7.55236 13.62 8.74382C13.62 9.93528 13.133 11.0779 12.266 11.9204C11.399 12.7629 10.2231 13.2362 8.99703 13.2362ZM13.804 5.13279C13.6624 5.13292 13.5222 5.10591 13.3914 5.05331C13.2605 5.00071 13.1416 4.92355 13.0415 4.82625C12.9414 4.72896 12.862 4.61342 12.8078 4.48627C12.7537 4.35912 12.7259 4.22284 12.726 4.08524C12.726 3.94774 12.7539 3.81158 12.8081 3.68455C12.8622 3.55751 12.9416 3.44209 13.0416 3.34486C13.1417 3.24763 13.2605 3.1705 13.3912 3.11788C13.5219 3.06526 13.662 3.03818 13.8035 3.03818C13.945 3.03818 14.0852 3.06526 14.2159 3.11788C14.3466 3.1705 14.4654 3.24763 14.5655 3.34486C14.6655 3.44209 14.7449 3.55751 14.799 3.68455C14.8532 3.81158 14.881 3.94774 14.881 4.08524C14.881 4.6644 14.399 5.13279 13.804 5.13279Z" fill="#F3CBF6"/>
</svg>
