<svg width="48" height="48" viewBox="0 0 48 48" fill="none" xmlns="http://www.w3.org/2000/svg">
<path d="M31.4998 24C31.4998 25.9891 30.7096 27.8968 29.3031 29.3033C27.8965 30.7098 25.9889 31.5 23.9998 31.5C22.0106 31.5 20.103 30.7098 18.6965 29.3033C17.2899 27.8968 16.4998 25.9891 16.4998 24C16.4998 23.5725 16.5448 23.155 16.6223 22.75H13.9998V32.7425C13.9998 33.4375 14.5623 34 15.2573 34H32.7448C33.0778 33.9993 33.397 33.8666 33.6323 33.6308C33.8676 33.3951 33.9998 33.0756 33.9998 32.7425V22.75H31.3773C31.4548 23.155 31.4998 23.5725 31.4998 24ZM23.9998 29C24.6565 28.9998 25.3068 28.8703 25.9136 28.6188C26.5203 28.3673 27.0715 27.9988 27.5358 27.5343C28.0001 27.0698 28.3684 26.5183 28.6195 25.9115C28.8707 25.3046 28.9999 24.6543 28.9998 23.9975C28.9996 23.3407 28.8701 22.6904 28.6186 22.0837C28.3671 21.477 27.9986 20.9257 27.534 20.4614C27.0695 19.9972 26.5181 19.6289 25.9112 19.3777C25.3044 19.1265 24.654 18.9973 23.9973 18.9975C22.6708 18.9978 21.3989 19.5251 20.4612 20.4632C19.5235 21.4014 18.9969 22.6736 18.9973 24C18.9976 25.3264 19.5248 26.5984 20.463 27.5361C21.4011 28.4737 22.6733 29.0003 23.9998 29ZM29.9998 18.75H32.9973C33.1964 18.75 33.3874 18.6711 33.5285 18.5305C33.6695 18.3899 33.7491 18.1991 33.7498 18V15.0025C33.7498 14.8029 33.6705 14.6115 33.5294 14.4704C33.3882 14.3293 33.1968 14.25 32.9973 14.25H29.9998C29.8002 14.25 29.6088 14.3293 29.4677 14.4704C29.3265 14.6115 29.2473 14.8029 29.2473 15.0025V18C29.2498 18.4125 29.5873 18.75 29.9998 18.75ZM23.9998 0C17.6346 0 11.5301 2.52856 7.02919 7.02944C2.52832 11.5303 -0.000244141 17.6348 -0.000244141 24C-0.000244141 30.3652 2.52832 36.4697 7.02919 40.9706C11.5301 45.4714 17.6346 48 23.9998 48C27.1515 48 30.2723 47.3792 33.1842 46.1731C36.096 44.967 38.7417 43.1992 40.9703 40.9706C43.1989 38.742 44.9668 36.0962 46.1729 33.1844C47.379 30.2726 47.9998 27.1517 47.9998 24C47.9998 20.8483 47.379 17.7274 46.1729 14.8156C44.9668 11.9038 43.1989 9.25804 40.9703 7.02944C38.7417 4.80083 36.096 3.033 33.1842 1.82689C30.2723 0.620778 27.1515 0 23.9998 0ZM36.4998 33.7225C36.4998 35.25 35.2498 36.5 33.7223 36.5H14.2773C12.7498 36.5 11.4998 35.25 11.4998 33.7225V14.2775C11.4998 12.75 12.7498 11.5 14.2773 11.5H33.7223C35.2498 11.5 36.4998 12.75 36.4998 14.2775V33.7225Z" fill="#811888"/>
</svg>
