<svg width="100" height="18" viewBox="0 0 100 18" fill="none" xmlns="http://www.w3.org/2000/svg">
<path d="M10 13.8113L16.18 17.1849L14.54 10.8265L20 6.54837L12.81 5.99664L10 0L7.19 5.99664L0 6.54837L5.46 10.8265L3.82 17.1849L10 13.8113Z" fill="#811888"/>
<path d="M30 13.8113L36.18 17.1849L34.54 10.8265L40 6.54837L32.81 5.99664L30 0L27.19 5.99664L20 6.54837L25.46 10.8265L23.82 17.1849L30 13.8113Z" fill="#811888"/>
<path d="M50 13.8113L56.18 17.1849L54.54 10.8265L60 6.54837L52.81 5.99664L50 0L47.19 5.99664L40 6.54837L45.46 10.8265L43.82 17.1849L50 13.8113Z" fill="#811888"/>
<path d="M70 13.8113L76.18 17.1849L74.54 10.8265L80 6.54837L72.81 5.99664L70 0L67.19 5.99664L60 6.54837L65.46 10.8265L63.82 17.1849L70 13.8113Z" fill="#811888"/>
<path d="M100 6.54837L92.81 5.98759L90 0L87.19 5.99664L80 6.54837L85.46 10.8265L83.82 17.1849L90 13.8113L96.18 17.1849L94.55 10.8265L100 6.54837ZM90 12.1199V3.70833L91.71 7.36239L96.09 7.70609L92.77 10.311L93.77 14.1821L90 12.1199Z" fill="#811888"/>
</svg>
