<svg width="16" height="18" viewBox="0 0 16 18" fill="none" xmlns="http://www.w3.org/2000/svg">
<path d="M12.44 2.74033C12.44 2.74033 12.95 3.2262 12.44 2.74033C11.7565 1.982 11.3798 1.00812 11.38 0H8.29003V12.0497C8.2662 12.7017 7.9829 13.3194 7.49979 13.7725C7.01668 14.2257 6.37147 14.4789 5.70002 14.479C4.28001 14.479 3.10001 13.3518 3.10001 11.9525C3.10001 10.2811 4.76002 9.02753 6.47002 9.54256V6.47184C3.02001 6.02483 0 8.62912 0 11.9525C0 15.1884 2.76001 17.4915 5.69002 17.4915C8.83003 17.4915 11.38 15.0135 11.38 11.9525V5.8402C12.633 6.71463 14.1374 7.18379 15.6801 7.18121V4.17851C15.6801 4.17851 13.8 4.26597 12.44 2.74033Z" fill="#F3CBF6"/>
</svg>
