<svg width="21" height="17" viewBox="0 0 21 17" fill="none" xmlns="http://www.w3.org/2000/svg">
<path d="M20.985 1.96111C20.1993 2.30001 19.3657 2.52211 18.512 2.61997C19.4083 2.09521 20.08 1.27411 20.404 0.307163C19.5585 0.793495 18.634 1.13625 17.67 1.32072C17.0212 0.649245 16.1626 0.204461 15.2272 0.0552785C14.2919 -0.0939038 13.332 0.0608446 12.4964 0.495547C11.6607 0.930249 10.9959 1.62064 10.605 2.45974C10.214 3.29884 10.1188 4.23981 10.334 5.13685C8.62205 5.05313 6.94735 4.62056 5.41856 3.8672C3.88978 3.11385 2.54109 2.05654 1.46 0.763893C1.07718 1.40256 0.875977 2.12865 0.876999 2.86777C0.876168 3.55655 1.05056 4.23486 1.38467 4.84232C1.71877 5.44979 2.20222 5.96758 2.792 6.34961C2.10838 6.32903 1.43976 6.14977 0.841999 5.8268V5.87831C0.841549 6.8446 1.18534 7.78125 1.81497 8.52916C2.4446 9.27706 3.32125 9.79009 4.296 9.98111C3.936 10.0783 3.556 10.124 3.162 10.124C2.884 10.124 2.615 10.1016 2.352 10.0501C2.62718 10.8813 3.16276 11.6082 3.88388 12.1292C4.605 12.6501 5.4756 12.9391 6.37399 12.9557C4.56716 14.3265 2.27626 14.9482 0 14.6854C1.96758 15.9175 4.25931 16.5714 6.6 16.5687C14.52 16.5687 18.848 10.192 18.848 4.66457C18.848 4.48285 18.846 4.30307 18.838 4.12329C19.6813 3.53424 20.4083 2.8021 20.984 1.96208" fill="#F3CBF6"/>
</svg>
