<svg width="26" height="17" viewBox="0 0 26 17" fill="none" xmlns="http://www.w3.org/2000/svg">
<path d="M25.74 3.61864C25.74 3.61864 25.48 1.96665 24.7 1.25866C23.7467 0.314665 22.62 0.314665 22.1 0.235999C18.46 1.40666e-07 13 0 13 0C13 0 7.54 1.40666e-07 3.9 0.235999C3.38 0.314665 2.25333 0.314665 1.3 1.25866C0.52 1.96665 0.26 3.61864 0.26 3.61864C0.26 3.61864 0 5.50663 0 7.39462V9.12528C0 11.0133 0.26 12.9799 0.26 12.9799C0.26 12.9799 0.52 14.6319 1.3 15.3399C2.25333 16.2839 3.55333 16.2839 4.16 16.3626C6.24 16.4412 13 16.5199 13 16.5199C13 16.5199 18.46 16.5199 22.1 16.2839C22.62 16.2052 23.7467 16.2052 24.7 15.2612C25.48 14.5532 25.74 12.9013 25.74 12.9013C25.74 12.9013 26 11.0133 26 9.12528V7.39462C26 5.50663 25.74 3.61864 25.74 3.61864ZM10.3133 11.3279V4.71997L17.3333 8.02395L10.3133 11.3279Z" fill="#F3CBF6"/>
</svg>
